<svg xmlns="http://www.w3.org/2000/svg" viewBox="0 0 80 80" fill="none" stroke="#B8BDC9" stroke-linecap="round" stroke-linejoin="round" role="img" aria-label="Controlling">
  <path d="M14 50 a 26 26 0 0 1 52 0" stroke-width="1.5"/>
  <line x1="14" y1="50" x2="66" y2="50" stroke-width="1.5"/>
  <path d="M22 50 a 18 18 0 0 1 36 0" stroke-width="0.7" opacity="0.5" stroke-dasharray="2 2"/>
  <line x1="20" y1="44" x2="24" y2="44" stroke-width="1"/>
  <line x1="60" y1="44" x2="56" y2="44" stroke-width="1"/>
  <line x1="40" y1="22" x2="40" y2="26" stroke-width="1"/>
  <g stroke-width="0.7" opacity="0.7">
    <line x1="16" y1="42" x2="18" y2="42"/>
    <line x1="62" y1="42" x2="64" y2="42"/>
    <line x1="26" y1="32" x2="28" y2="33.5"/>
    <line x1="54" y1="32" x2="52" y2="33.5"/>
    <line x1="32" y1="26" x2="33" y2="28"/>
    <line x1="48" y1="26" x2="47" y2="28"/>
  </g>
  <line x1="40" y1="50" x2="56" y2="30" stroke-width="2"/>
  <circle cx="40" cy="50" r="2.5" fill="#B8BDC9" stroke="none"/>
  <circle cx="40" cy="50" r="3.5" stroke-width="0.7" opacity="0.6"/>
  <circle cx="56" cy="30" r="1.5" stroke-width="0.7" opacity="0.7"/>
  <g fill="#B8BDC9" stroke="none" opacity="0.6">
    <circle cx="60" cy="22" r="0.6"/>
    <circle cx="50" cy="18" r="0.5"/>
  </g>
</svg>
