<svg xmlns="http://www.w3.org/2000/svg" viewBox="0 0 80 80" fill="none" stroke="#B8BDC9" stroke-linecap="round" stroke-linejoin="round" role="img" aria-label="HR HCM">
  <circle cx="28" cy="28" r="7" stroke-width="1.5"/>
  <path d="M14 50 c 0 -8 6 -14 14 -14 s 14 6 14 14" stroke-width="1.5"/>
  <circle cx="52" cy="34" r="6" stroke-width="1.5"/>
  <path d="M40 56 c 0 -7 5 -12 12 -12 s 12 5 12 12" stroke-width="1.5"/>
  <circle cx="68" cy="22" r="3" stroke-width="1"/>
  <path d="M62 32 c 0 -3.5 2.5 -6 6 -6 s 6 2.5 6 6" stroke-width="1"/>
  <rect x="22" y="40" width="6" height="3" stroke-width="0.7" opacity="0.6"/>
  <rect x="48" y="44" width="5" height="2.5" stroke-width="0.7" opacity="0.6"/>
  <g stroke-width="0.6" opacity="0.5" stroke-dasharray="2 2">
    <line x1="38" y1="30" x2="46" y2="32"/>
    <line x1="58" y1="30" x2="64" y2="24"/>
  </g>
  <g stroke-width="1" opacity="0.7">
    <line x1="14" y1="62" x2="18" y2="62"/>
    <line x1="16" y1="60" x2="16" y2="64"/>
  </g>
  <g fill="#B8BDC9" stroke="none" opacity="0.6">
    <circle cx="40" cy="14" r="0.7"/>
    <circle cx="14" cy="20" r="0.6"/>
  </g>
</svg>
