<svg xmlns="http://www.w3.org/2000/svg" viewBox="0 0 80 80" fill="none" stroke="#B8BDC9" stroke-linecap="round" stroke-linejoin="round" role="img" aria-label="Material Management">
  <rect x="12" y="42" width="20" height="20" stroke-width="1.5"/>
  <line x1="22" y1="42" x2="22" y2="62" stroke-width="1"/>
  <rect x="32" y="42" width="20" height="20" stroke-width="1.5"/>
  <line x1="42" y1="42" x2="42" y2="62" stroke-width="1"/>
  <rect x="52" y="42" width="16" height="20" stroke-width="1.5"/>
  <rect x="22" y="22" width="20" height="20" stroke-width="1.5"/>
  <line x1="32" y1="22" x2="32" y2="42" stroke-width="1"/>
  <rect x="42" y="22" width="20" height="20" stroke-width="1.5"/>
  <line x1="52" y1="22" x2="52" y2="42" stroke-width="1"/>
  <g stroke-width="0.7" opacity="0.55">
    <line x1="22" y1="32" x2="42" y2="32"/>
    <line x1="42" y1="32" x2="62" y2="32"/>
  </g>
  <g stroke-width="0.5" opacity="0.55">
    <line x1="56" y1="46" x2="56" y2="54"/>
    <line x1="58" y1="46" x2="58" y2="54"/>
    <line x1="60" y1="46" x2="60" y2="54"/>
    <line x1="62" y1="46" x2="62" y2="54"/>
    <line x1="64" y1="46" x2="64" y2="54"/>
  </g>
  <g stroke-width="0.7" opacity="0.6">
    <path d="M16 50 L 16 46 M 14 48 L 16 46 L 18 48"/>
    <path d="M37 30 L 37 26 M 35 28 L 37 26 L 39 28"/>
  </g>
  <g fill="#B8BDC9" stroke="none" opacity="0.6">
    <circle cx="46" cy="14" r="0.7"/>
    <circle cx="14" cy="14" r="0.6"/>
  </g>
</svg>
