<svg xmlns="http://www.w3.org/2000/svg" viewBox="0 0 80 80" fill="none" stroke="#B8BDC9" stroke-linecap="round" stroke-linejoin="round" role="img" aria-label="Production Planning">
  <rect x="14" y="22" width="52" height="44" rx="3" stroke-width="1.5"/>
  <line x1="14" y1="34" x2="66" y2="34" stroke-width="1.5"/>
  <line x1="22" y1="14" x2="22" y2="28" stroke-width="1.5"/>
  <line x1="58" y1="14" x2="58" y2="28" stroke-width="1.5"/>
  <g fill="#B8BDC9" stroke="none" opacity="0.55">
    <circle cx="22" cy="29" r="0.6"/>
    <circle cx="32" cy="29" r="0.6"/>
    <circle cx="42" cy="29" r="0.6"/>
    <circle cx="52" cy="29" r="0.6"/>
    <circle cx="62" cy="29" r="0.6"/>
  </g>
  <rect x="22" y="42" width="22" height="6" stroke-width="1.5"/>
  <rect x="32" y="52" width="22" height="6" stroke-width="1.5"/>
  <rect x="44" y="62" width="14" height="2" stroke-width="1"/>
  <g stroke-width="0.5" opacity="0.4">
    <line x1="22" y1="45" x2="44" y2="45"/>
    <line x1="32" y1="55" x2="54" y2="55"/>
  </g>
  <g stroke-width="1" opacity="0.7">
    <path d="M16 44 L 18 46 L 20 42"/>
  </g>
  <g stroke-width="0.8" opacity="0.7">
    <line x1="60" y1="63" x2="60" y2="68"/>
    <path d="M60 63 L 64 64 L 60 65"/>
  </g>
  <line x1="44" y1="48" x2="44" y2="52" stroke-width="0.6" opacity="0.5" stroke-dasharray="1.5 1.5"/>
  <line x1="54" y1="58" x2="54" y2="62" stroke-width="0.6" opacity="0.5" stroke-dasharray="1.5 1.5"/>
  <g fill="#B8BDC9" stroke="none" opacity="0.6">
    <circle cx="68" cy="42" r="0.6"/>
  </g>
</svg>
