<svg xmlns="http://www.w3.org/2000/svg" viewBox="0 0 80 80" fill="none" stroke="#B8BDC9" stroke-linecap="round" stroke-linejoin="round" role="img" aria-label="Sales and Distribution">
  <rect x="10" y="36" width="32" height="20" stroke-width="1.5"/>
  <path d="M42 40 L 56 40 L 64 48 V 56 H 42 Z" stroke-width="1.5"/>
  <circle cx="20" cy="60" r="4" stroke-width="2"/>
  <circle cx="20" cy="60" r="1.2" stroke-width="1"/>
  <circle cx="52" cy="60" r="4" stroke-width="2"/>
  <circle cx="52" cy="60" r="1.2" stroke-width="1"/>
  <line x1="14" y1="42" x2="38" y2="42" stroke-width="1"/>
  <line x1="26" y1="42" x2="26" y2="56" stroke-width="0.7" opacity="0.6"/>
  <g stroke-width="0.6" opacity="0.5">
    <line x1="14" y1="48" x2="22" y2="48"/>
    <line x1="14" y1="52" x2="20" y2="52"/>
    <line x1="28" y1="48" x2="36" y2="48"/>
  </g>
  <circle cx="62" cy="50" r="1.2" stroke-width="1" opacity="0.85"/>
  <rect x="46" y="42" width="10" height="6" stroke-width="0.8" opacity="0.7"/>
  <line x1="56" y1="50" x2="58" y2="50" stroke-width="0.7" opacity="0.6"/>
  <g stroke-width="1" opacity="0.7">
    <line x1="2" y1="42" x2="6" y2="42" stroke-dasharray="2 1.5"/>
    <line x1="3" y1="48" x2="7" y2="48" stroke-dasharray="2 1.5"/>
    <line x1="2" y1="54" x2="6" y2="54" stroke-dasharray="2 1.5"/>
  </g>
  <g stroke-width="0.8" opacity="0.6">
    <line x1="60" y1="22" x2="68" y2="22"/>
    <path d="M65 19 L 68 22 L 65 25"/>
  </g>
</svg>
