<svg xmlns="http://www.w3.org/2000/svg" viewBox="0 0 80 80" fill="none" stroke="#B8BDC9" stroke-linecap="round" stroke-linejoin="round" role="img" aria-label="Warehouse Management">
  <path d="M14 28 L 40 14 L 66 28 V 64 H 14 Z" stroke-width="1.5"/>
  <line x1="14" y1="40" x2="66" y2="40" stroke-width="1.5"/>
  <line x1="14" y1="32" x2="66" y2="32" stroke-width="0.7" opacity="0.55"/>
  <rect x="34" y="56" width="12" height="8" stroke-width="0.8"/>
  <line x1="40" y1="56" x2="40" y2="64" stroke-width="0.6" opacity="0.5"/>
  <rect x="18" y="44" width="8" height="6" stroke-width="1"/>
  <rect x="32" y="44" width="8" height="6" stroke-width="1"/>
  <rect x="46" y="44" width="8" height="6" stroke-width="1"/>
  <rect x="56" y="44" width="6" height="6" stroke-width="1"/>
  <g stroke-width="0.4" opacity="0.55">
    <line x1="20" y1="46" x2="20" y2="48"/>
    <line x1="22" y1="46" x2="22" y2="48"/>
    <line x1="24" y1="46" x2="24" y2="48"/>
    <line x1="34" y1="46" x2="34" y2="48"/>
    <line x1="36" y1="46" x2="36" y2="48"/>
    <line x1="38" y1="46" x2="38" y2="48"/>
  </g>
  <g stroke-width="0.7" opacity="0.7">
    <rect x="20" y="55" width="6" height="6"/>
    <line x1="26" y1="58" x2="30" y2="58"/>
    <circle cx="22" cy="62" r="1.2"/>
    <circle cx="25" cy="62" r="1.2"/>
  </g>
  <g fill="#B8BDC9" stroke="none" opacity="0.6">
    <circle cx="40" cy="22" r="0.7"/>
    <circle cx="60" cy="14" r="0.5"/>
  </g>
</svg>
