<svg xmlns="http://www.w3.org/2000/svg" viewBox="0 0 80 80" fill="none" stroke="#B8BDC9" stroke-linecap="round" stroke-linejoin="round" role="img" aria-label="Business Intelligence">
  <line x1="14" y1="14" x2="14" y2="66" stroke-width="1.5"/>
  <line x1="14" y1="66" x2="66" y2="66" stroke-width="1.5"/>
  <g stroke-width="0.7" opacity="0.6">
    <line x1="12" y1="22" x2="14" y2="22"/>
    <line x1="12" y1="34" x2="14" y2="34"/>
    <line x1="12" y1="46" x2="14" y2="46"/>
    <line x1="12" y1="58" x2="14" y2="58"/>
    <line x1="26" y1="66" x2="26" y2="68"/>
    <line x1="40" y1="66" x2="40" y2="68"/>
    <line x1="54" y1="66" x2="54" y2="68"/>
  </g>
  <rect x="22" y="50" width="8" height="16" stroke-width="1.5"/>
  <rect x="36" y="38" width="8" height="28" stroke-width="1.5"/>
  <rect x="50" y="26" width="8" height="40" stroke-width="1.5"/>
  <g stroke-width="0.5" opacity="0.4">
    <line x1="22" y1="56" x2="30" y2="56"/>
    <line x1="36" y1="48" x2="44" y2="48"/>
    <line x1="50" y1="34" x2="58" y2="34"/>
    <line x1="50" y1="44" x2="58" y2="44"/>
    <line x1="50" y1="54" x2="58" y2="54"/>
  </g>
  <polyline points="22,42 36,30 50,18" stroke-width="1.5"/>
  <path d="M 50 18 L 64 14" stroke-width="1" stroke-dasharray="2 2" opacity="0.7"/>
  <path d="M 64 14 L 60 12 M 64 14 L 62 18" stroke-width="1"/>
  <circle cx="22" cy="42" r="2" fill="#B8BDC9" stroke="none"/>
  <circle cx="36" cy="30" r="2" fill="#B8BDC9" stroke="none"/>
  <circle cx="50" cy="18" r="2" fill="#B8BDC9" stroke="none"/>
  <g stroke-width="0.8" opacity="0.7">
    <path d="M68 22 L 68 26 M 66 24 L 70 24"/>
  </g>
</svg>
