<svg xmlns="http://www.w3.org/2000/svg" viewBox="0 0 80 80" fill="none" stroke="#B8BDC9" stroke-linecap="round" stroke-linejoin="round" role="img" aria-label="Consulenza SAP">
  <circle cx="28" cy="28" r="6" stroke-width="1.5"/>
  <path d="M16 50c0-7 5-12 12-12s12 5 12 12" stroke-width="1.5"/>
  <circle cx="52" cy="32" r="5" stroke-width="1.5"/>
  <path d="M42 52c0-6 4-10 10-10s10 4 10 10" stroke-width="1.5"/>
  <line x1="32" y1="60" x2="48" y2="60" stroke-width="1"/>
  <path d="M28 38 L 28 46" stroke-width="0.8" opacity="0.7"/>
  <path d="M52 40 L 52 46" stroke-width="0.7" opacity="0.6"/>
  <g fill="#B8BDC9" stroke="none">
    <circle cx="22" cy="14" r="0.7"/>
    <circle cx="28" cy="11" r="0.9"/>
    <circle cx="34" cy="14" r="0.7"/>
  </g>
  <path d="M62 22 Q 66 18 70 20 Q 70 24 66 26 L 64 28 Z" stroke-width="0.8" opacity="0.7"/>
  <g stroke-width="0.8" opacity="0.7">
    <path d="M14 56 L 14 60 M 12 58 L 16 58"/>
  </g>
</svg>
