<svg xmlns="http://www.w3.org/2000/svg" viewBox="0 0 80 80" fill="none" stroke="#B8BDC9" stroke-width="1.5" stroke-linecap="round" stroke-linejoin="round" role="img" aria-label="Migrazione S/4HANA">
  <ellipse cx="20" cy="22" rx="10" ry="4"/>
  <path d="M10 22v18c0 2 4 4 10 4s10-2 10-4V22"/>
  <path d="M10 32c0 2 4 4 10 4s10-2 10-4"/>
  <ellipse cx="60" cy="22" rx="10" ry="4"/>
  <path d="M50 22v18c0 2 4 4 10 4s10-2 10-4V22"/>
  <path d="M50 32c0 2 4 4 10 4s10-2 10-4"/>
  <line x1="32" y1="56" x2="54" y2="56"/>
  <polyline points="48,50 54,56 48,62"/>
</svg>
