<svg xmlns="http://www.w3.org/2000/svg" viewBox="0 0 200 200" role="img" aria-label="Automotive">
  <defs>
    <linearGradient id="auto-top" x1="0" y1="0" x2="1" y2="1">
      <stop offset="0" stop-color="#D02545"/>
      <stop offset="1" stop-color="#A01729"/>
    </linearGradient>
    <linearGradient id="auto-side" x1="0" y1="0" x2="0" y2="1">
      <stop offset="0" stop-color="#A01729"/>
      <stop offset="1" stop-color="#7A0F1F"/>
    </linearGradient>
    <linearGradient id="auto-front" x1="0" y1="0" x2="0" y2="1">
      <stop offset="0" stop-color="#6B0F1C"/>
      <stop offset="1" stop-color="#4A0A14"/>
    </linearGradient>
    <linearGradient id="auto-glass" x1="0" y1="0" x2="1" y2="1">
      <stop offset="0" stop-color="#3D5C8C"/>
      <stop offset="1" stop-color="#15253F"/>
    </linearGradient>
  </defs>

  <ellipse cx="100" cy="172" rx="68" ry="6" fill="#000" fill-opacity="0.4"/>

  <path d="M 83 82 L 152 122 L 117 142 L 48 102 Z" fill="url(#auto-top)"/>
  <path d="M 83 100 L 152 140 L 152 122 L 83 82 Z" fill="url(#auto-side)"/>
  <path d="M 152 140 L 117 160 L 117 142 L 152 122 Z" fill="url(#auto-front)"/>

  <path d="M 91 72 L 143 102 L 109 122 L 57 92 Z" fill="#5C7299"/>
  <path d="M 91 87 L 143 117 L 143 102 L 91 72 Z" fill="url(#auto-glass)"/>
  <path d="M 143 117 L 109 137 L 109 122 L 143 102 Z" fill="#0A1628"/>

  <path d="M 91 87 L 143 117" stroke="#0A1628" stroke-width="1.2" fill="none" opacity="0.7"/>
  <path d="M 117 142 L 152 122" stroke="rgba(15,29,51,0.45)" stroke-width="1" fill="none"/>

  <g transform="matrix(0.866 0.5 0 -1 135 124)">
    <circle r="9" fill="#0A1628"/>
    <circle r="5" fill="#3D4B66"/>
    <circle r="2.5" fill="#B8BDC9"/>
  </g>
  <g transform="matrix(0.866 0.5 0 -1 96 102)">
    <circle r="9" fill="#0A1628"/>
    <circle r="5" fill="#3D4B66"/>
    <circle r="2.5" fill="#B8BDC9"/>
  </g>

  <circle cx="146" cy="132" r="3" fill="#F5F1E8"/>
  <circle cx="146" cy="132" r="1.4" fill="#fff"/>

  <circle cx="86" cy="92" r="2.4" fill="#ff1213"/>

  <path d="M 48 102 L 117 142" stroke="rgba(245,241,232,0.18)" stroke-width="1.2" fill="none"/>
</svg>
