<svg xmlns="http://www.w3.org/2000/svg" viewBox="0 0 80 80" fill="none" stroke="#B8BDC9" stroke-linecap="round" stroke-linejoin="round" role="img" aria-label="Automotive">
  <path d="M 10 58 L 10 51 Q 10 49 12 49 L 24 41 Q 26 39 30 39 L 50 39 Q 54 39 56 41 L 68 49 Q 70 49 70 51 L 70 58 Z" stroke-width="1.5"/>

  <line x1="12" y1="49" x2="68" y2="49" stroke-width="1"/>
  <line x1="40" y1="39" x2="40" y2="49" stroke-width="1"/>
  <line x1="44" y1="49" x2="44" y2="56" stroke-width="1"/>
  <line x1="46" y1="52" x2="50" y2="52" stroke-width="1"/>

  <path d="M 53 41 L 55 40 L 55 42 L 53 43 Z" stroke-width="1"/>

  <line x1="56" y1="44" x2="66" y2="48" stroke-width="0.8" opacity="0.7"/>

  <g stroke-width="0.7" opacity="0.5">
    <line x1="58" y1="46" x2="61" y2="44"/>
    <line x1="60" y1="48" x2="63" y2="46"/>
    <line x1="62" y1="49" x2="65" y2="47"/>
  </g>

  <circle cx="66" cy="51" r="1.5" stroke-width="1.5"/>
  <line x1="11" y1="51" x2="14" y2="51" stroke-width="1.5"/>

  <circle cx="56" cy="58" r="6" stroke-width="2"/>
  <circle cx="56" cy="58" r="2.5" stroke-width="1"/>
  <line x1="56" y1="52" x2="56" y2="64" stroke-width="0.8"/>
  <line x1="50" y1="58" x2="62" y2="58" stroke-width="0.8"/>

  <circle cx="24" cy="58" r="6" stroke-width="2"/>
  <circle cx="24" cy="58" r="2.5" stroke-width="1"/>
  <line x1="24" y1="52" x2="24" y2="64" stroke-width="0.8"/>
  <line x1="18" y1="58" x2="30" y2="58" stroke-width="0.8"/>

  <g stroke-width="1" stroke-linecap="round" opacity="0.7">
    <line x1="2" y1="45" x2="7" y2="45" stroke-dasharray="2 1.5"/>
    <line x1="3" y1="50" x2="8" y2="50" stroke-dasharray="2 1.5"/>
    <line x1="2" y1="55" x2="7" y2="55" stroke-dasharray="2 1.5"/>
  </g>
</svg>
