<svg xmlns="http://www.w3.org/2000/svg" viewBox="0 0 80 80" fill="none" stroke="#B8BDC9" stroke-linecap="round" stroke-linejoin="round" role="img" aria-label="Chimica">
  <path d="M30 14v18L18 60c-2 4 1 8 5 8h34c4 0 7-4 5-8L50 32V14" stroke-width="1.5"/>
  <line x1="26" y1="14" x2="54" y2="14" stroke-width="1.5"/>
  <line x1="22" y1="50" x2="58" y2="50" stroke-width="1"/>
  <g stroke-width="0.7" opacity="0.55">
    <line x1="55" y1="44" x2="58" y2="44"/>
    <line x1="56" y1="52" x2="58" y2="52"/>
    <line x1="57" y1="58" x2="59" y2="58"/>
  </g>
  <g stroke-width="0.7" opacity="0.4">
    <line x1="26" y1="20" x2="26" y2="30"/>
    <line x1="28" y1="20" x2="28" y2="28"/>
  </g>
  <circle cx="32" cy="56" r="1.5" fill="#B8BDC9" stroke="none"/>
  <circle cx="44" cy="58" r="1.5" fill="#B8BDC9" stroke="none"/>
  <circle cx="40" cy="62" r="1.5" fill="#B8BDC9" stroke="none"/>
  <circle cx="36" cy="60" r="1" stroke-width="0.8"/>
  <circle cx="48" cy="64" r="0.8" stroke-width="0.8"/>
  <g stroke-width="0.8" opacity="0.5">
    <circle cx="38" cy="10" r="1.5"/>
    <circle cx="42" cy="6" r="1.2"/>
    <circle cx="38" cy="3" r="0.8"/>
  </g>
</svg>
