<svg xmlns="http://www.w3.org/2000/svg" viewBox="0 0 80 80" fill="none" stroke="#B8BDC9" stroke-linecap="round" stroke-linejoin="round" role="img" aria-label="Communications and Media">
  <circle cx="40" cy="58" r="3" fill="#B8BDC9" stroke="none"/>
  <circle cx="40" cy="58" r="4.5" stroke-width="0.7" opacity="0.5"/>
  <path d="M30 50c2-2 6-4 10-4s8 2 10 4" stroke-width="1.5"/>
  <path d="M22 42c4-4 12-8 18-8s14 4 18 8" stroke-width="1.5"/>
  <path d="M14 34c6-6 18-12 26-12s20 6 26 12" stroke-width="1"/>
  <path d="M8 28c8-8 22-16 32-16s24 8 32 16" stroke-width="0.8" stroke-dasharray="3 2" opacity="0.6"/>
  <line x1="40" y1="61" x2="40" y2="68" stroke-width="1.5"/>
  <path d="M36 68 L 44 68" stroke-width="1.5"/>
  <path d="M37 71 L 43 71" stroke-width="1"/>
  <g fill="#B8BDC9" stroke="none">
    <circle cx="14" cy="34" r="0.8"/>
    <circle cx="66" cy="34" r="0.8"/>
    <circle cx="22" cy="42" r="0.6"/>
    <circle cx="58" cy="42" r="0.6"/>
  </g>
  <g stroke-width="0.8" opacity="0.6">
    <path d="M68 50 L 72 50 M 70 48 L 72 50 L 70 52"/>
    <path d="M70 56 L 74 56 M 72 54 L 74 56 L 72 58"/>
  </g>
</svg>
