<svg xmlns="http://www.w3.org/2000/svg" viewBox="0 0 80 80" fill="none" stroke="#B8BDC9" stroke-linecap="round" stroke-linejoin="round" role="img" aria-label="Food and Beverage">
  <line x1="40" y1="14" x2="40" y2="68" stroke-width="1.5"/>
  <path d="M40 22c-6 0-10 4-10 8 4 0 10-4 10-8z" stroke-width="1.5"/>
  <path d="M40 22c6 0 10 4 10 8-4 0-10-4-10-8z" stroke-width="1.5"/>
  <path d="M40 34c-6 0-10 4-10 8 4 0 10-4 10-8z" stroke-width="1.5"/>
  <path d="M40 34c6 0 10 4 10 8-4 0-10-4-10-8z" stroke-width="1.5"/>
  <path d="M40 46c-6 0-10 4-10 8 4 0 10-4 10-8z" stroke-width="1.5"/>
  <path d="M40 46c6 0 10 4 10 8-4 0-10-4-10-8z" stroke-width="1.5"/>
  <path d="M40 58c-4 0-7 2-7 5 3 0 7-3 7-5z" stroke-width="1"/>
  <path d="M40 58c4 0 7 2 7 5-3 0-7-3-7-5z" stroke-width="1"/>
  <circle cx="40" cy="14" r="1.2" fill="#B8BDC9" stroke="none"/>
  <line x1="40" y1="9" x2="40" y2="13" stroke-width="0.8"/>
  <g fill="#B8BDC9" stroke="none" opacity="0.65">
    <circle cx="34" cy="28" r="0.6"/>
    <circle cx="46" cy="28" r="0.6"/>
    <circle cx="34" cy="40" r="0.6"/>
    <circle cx="46" cy="40" r="0.6"/>
    <circle cx="34" cy="52" r="0.6"/>
    <circle cx="46" cy="52" r="0.6"/>
  </g>
  <g stroke-width="1" opacity="0.7">
    <path d="M16 28 L 16 32 M 14 30 L 18 30"/>
    <path d="M62 50 L 62 54 M 60 52 L 64 52"/>
  </g>
  <path d="M40 64 Q 36 65 35 70 Q 38 68 40 67" stroke-width="1"/>
  <path d="M40 64 Q 44 65 45 70 Q 42 68 40 67" stroke-width="1"/>
</svg>
