<svg xmlns="http://www.w3.org/2000/svg" viewBox="0 0 80 80" fill="none" stroke="#B8BDC9" stroke-width="1.5" stroke-linecap="round" stroke-linejoin="round" role="img" aria-label="Food and Beverage">
  <line x1="40" y1="14" x2="40" y2="68"/>
  <path d="M40 22c-6 0-10 4-10 8 4 0 10-4 10-8z"/>
  <path d="M40 22c6 0 10 4 10 8-4 0-10-4-10-8z"/>
  <path d="M40 34c-6 0-10 4-10 8 4 0 10-4 10-8z"/>
  <path d="M40 34c6 0 10 4 10 8-4 0-10-4-10-8z"/>
  <path d="M40 46c-6 0-10 4-10 8 4 0 10-4 10-8z"/>
  <path d="M40 46c6 0 10 4 10 8-4 0-10-4-10-8z"/>
</svg>
