<svg xmlns="http://www.w3.org/2000/svg" viewBox="0 0 80 80" fill="none" stroke="#B8BDC9" stroke-linecap="round" stroke-linejoin="round" role="img" aria-label="Industriale">
  <rect x="10" y="54" width="46" height="12" rx="6" stroke-width="1.5"/>

  <g stroke-width="0.7" opacity="0.55">
    <line x1="14" y1="58" x2="14" y2="62"/>
    <line x1="20" y1="58" x2="20" y2="62"/>
    <line x1="26" y1="58" x2="26" y2="62"/>
    <line x1="32" y1="58" x2="32" y2="62"/>
    <line x1="38" y1="58" x2="38" y2="62"/>
    <line x1="44" y1="58" x2="44" y2="62"/>
    <line x1="50" y1="58" x2="50" y2="62"/>
  </g>

  <circle cx="16" cy="60" r="2.5" stroke-width="1.5"/>
  <circle cx="50" cy="60" r="2.5" stroke-width="1.5"/>
  <circle cx="16" cy="60" r="0.8" fill="#B8BDC9" stroke="none"/>
  <circle cx="50" cy="60" r="0.8" fill="#B8BDC9" stroke="none"/>

  <circle cx="28" cy="61" r="1.2" stroke-width="1"/>
  <circle cx="38" cy="61" r="1.2" stroke-width="1"/>

  <path d="M 18 54 L 18 42 L 20 40 L 36 40 L 36 54" stroke-width="1.5"/>
  <path d="M 21 51 L 21 43 L 33 43 L 33 51 Z" stroke-width="1"/>
  <line x1="27" y1="43" x2="27" y2="51" stroke-width="0.7" opacity="0.55"/>
  <line x1="33" y1="51" x2="33" y2="54" stroke-width="0.8" opacity="0.6"/>

  <line x1="22" y1="40" x2="22" y2="36" stroke-width="1.5"/>
  <g stroke-width="0.8" opacity="0.5">
    <circle cx="22" cy="33" r="1.5"/>
    <circle cx="20" cy="29.5" r="1"/>
    <circle cx="22" cy="26.5" r="0.7"/>
  </g>

  <line x1="32" y1="42" x2="58" y2="22" stroke-width="2"/>
  <line x1="36" y1="42" x2="62" y2="22" stroke-width="2"/>
  <circle cx="34" cy="42" r="1.5" stroke-width="1.5"/>

  <line x1="36" y1="46" x2="50" y2="35" stroke-width="1" opacity="0.65"/>
  <circle cx="36" cy="46" r="0.7" fill="#B8BDC9" stroke="none"/>

  <circle cx="60" cy="22" r="1.5" stroke-width="1.5"/>

  <path d="M 64 36 L 72 38 L 68 48 L 60 44 Z" stroke-width="1.5"/>
  <line x1="60" y1="22" x2="64" y2="36" stroke-width="1"/>

  <g stroke-width="1">
    <line x1="61" y1="46" x2="61.5" y2="48"/>
    <line x1="63" y1="47" x2="63.5" y2="49"/>
    <line x1="65" y1="48" x2="65.5" y2="50"/>
    <line x1="67" y1="49" x2="67.5" y2="51"/>
  </g>

  <g fill="#B8BDC9" stroke="none" opacity="0.55">
    <circle cx="71" cy="51" r="0.6"/>
    <circle cx="74" cy="47" r="0.5"/>
    <circle cx="69" cy="54" r="0.4"/>
    <circle cx="76" cy="51" r="0.4"/>
  </g>

  <path d="M 70 28 Q 73 31 76 30" stroke-width="0.8" opacity="0.55"/>
  <path d="M 76 30 L 74 30 M 76 30 L 75 32" stroke-width="0.8" opacity="0.55"/>
</svg>
