<svg xmlns="http://www.w3.org/2000/svg" viewBox="0 0 80 80" fill="none" stroke="#B8BDC9" stroke-linecap="round" stroke-linejoin="round" role="img" aria-label="Public Sector">
  <line x1="40" y1="6" x2="40" y2="12" stroke-width="0.8"/>
  <path d="M40 6 L 46 8 L 40 10" stroke-width="0.8"/>
  <polygon points="40,12 14,22 66,22" stroke-width="1.5"/>
  <circle cx="40" cy="18" r="1.5" stroke-width="0.8" opacity="0.7"/>
  <line x1="14" y1="26" x2="66" y2="26" stroke-width="1.5"/>
  <line x1="22" y1="26" x2="22" y2="58" stroke-width="1.5"/>
  <line x1="32" y1="26" x2="32" y2="58" stroke-width="1.5"/>
  <line x1="48" y1="26" x2="48" y2="58" stroke-width="1.5"/>
  <line x1="58" y1="26" x2="58" y2="58" stroke-width="1.5"/>
  <g stroke-width="1">
    <line x1="20" y1="28" x2="24" y2="28"/>
    <line x1="30" y1="28" x2="34" y2="28"/>
    <line x1="46" y1="28" x2="50" y2="28"/>
    <line x1="56" y1="28" x2="60" y2="28"/>
    <line x1="20" y1="56" x2="24" y2="56"/>
    <line x1="30" y1="56" x2="34" y2="56"/>
    <line x1="46" y1="56" x2="50" y2="56"/>
    <line x1="56" y1="56" x2="60" y2="56"/>
  </g>
  <g stroke-width="0.5" opacity="0.5">
    <line x1="23" y1="32" x2="23" y2="54"/>
    <line x1="33" y1="32" x2="33" y2="54"/>
    <line x1="49" y1="32" x2="49" y2="54"/>
    <line x1="59" y1="32" x2="59" y2="54"/>
  </g>
  <line x1="14" y1="58" x2="66" y2="58" stroke-width="1.5"/>
  <line x1="10" y1="62" x2="70" y2="62" stroke-width="1"/>
  <line x1="8" y1="68" x2="72" y2="68" stroke-width="1"/>
</svg>
