<svg xmlns="http://www.w3.org/2000/svg" viewBox="0 0 80 80" fill="none" stroke="#B8BDC9" stroke-linecap="round" stroke-linejoin="round" role="img" aria-label="Travel">
  <rect x="14" y="26" width="52" height="38" rx="3" stroke-width="1.5"/>
  <path d="M28 26v-6c0-2 2-4 4-4h16c2 0 4 2 4 4v6" stroke-width="1.5"/>
  <line x1="14" y1="40" x2="66" y2="40" stroke-width="1.5"/>
  <rect x="36" y="38" width="8" height="3" stroke-width="1"/>
  <line x1="40" y1="36" x2="40" y2="38" stroke-width="0.8"/>
  <g stroke-width="0.6" opacity="0.5">
    <line x1="18" y1="30" x2="62" y2="30"/>
    <line x1="18" y1="60" x2="62" y2="60"/>
  </g>
  <line x1="44" y1="20" x2="48" y2="22" stroke-width="0.8"/>
  <rect x="46" y="21" width="6" height="4" stroke-width="0.8"/>
  <circle cx="22" cy="50" r="2.5" stroke-width="1" opacity="0.7"/>
  <path d="M22 48 L 22 52 M 20 50 L 24 50" stroke-width="0.7" opacity="0.6"/>
  <rect x="50" y="48" width="6" height="4" stroke-width="1" opacity="0.7"/>
  <line x1="50" y1="50" x2="56" y2="50" stroke-width="0.7" opacity="0.6"/>
  <circle cx="20" cy="66" r="2" stroke-width="1"/>
  <circle cx="60" cy="66" r="2" stroke-width="1"/>
  <circle cx="20" cy="66" r="0.6" fill="#B8BDC9" stroke="none"/>
  <circle cx="60" cy="66" r="0.6" fill="#B8BDC9" stroke="none"/>
</svg>
