<svg xmlns="http://www.w3.org/2000/svg" viewBox="0 0 80 80" fill="none" stroke="#B8BDC9" stroke-linecap="round" stroke-linejoin="round" role="img" aria-label="Utilities">
  <circle cx="40" cy="40" r="28" stroke-width="0.7" opacity="0.4" stroke-dasharray="2 3"/>
  <path d="M44 12L20 44h16l-4 24 28-32H44l4-24z" stroke-width="1.5"/>
  <line x1="38" y1="20" x2="32" y2="38" stroke-width="0.8" opacity="0.5"/>
  <line x1="40" y1="44" x2="48" y2="40" stroke-width="0.7" opacity="0.5"/>
  <g stroke-width="1" opacity="0.7">
    <path d="M14 18 L 12 20 L 14 22 L 12 24"/>
    <path d="M66 56 L 68 58 L 66 60 L 68 62"/>
  </g>
  <g stroke-width="0.8" opacity="0.7">
    <path d="M68 22 L 64 26 L 67 26 L 63 30"/>
    <path d="M14 60 L 18 56 L 15 56 L 19 52"/>
  </g>
  <g fill="#B8BDC9" stroke="none">
    <circle cx="20" cy="14" r="0.8"/>
    <circle cx="62" cy="14" r="0.7"/>
    <circle cx="14" cy="38" r="0.6"/>
    <circle cx="66" cy="38" r="0.6"/>
    <circle cx="22" cy="68" r="0.6"/>
    <circle cx="58" cy="68" r="0.7"/>
  </g>
  <g stroke-width="0.7" opacity="0.5">
    <line x1="40" y1="4" x2="40" y2="8"/>
    <line x1="40" y1="72" x2="40" y2="76"/>
    <line x1="4" y1="40" x2="8" y2="40"/>
    <line x1="72" y1="40" x2="76" y2="40"/>
  </g>
</svg>
