<svg xmlns="http://www.w3.org/2000/svg" viewBox="0 0 80 80" fill="none" stroke="#B8BDC9" stroke-linecap="round" stroke-linejoin="round" role="img" aria-label="AI Culture">
  <circle cx="40" cy="40" r="30" stroke-width="0.5" opacity="0.35" stroke-dasharray="1.5 2"/>
  <circle cx="40" cy="40" r="22" stroke-width="0.5" opacity="0.25"/>
  <circle cx="40" cy="40" r="5" stroke-width="1.5"/>
  <circle cx="40" cy="14" r="2.8" stroke-width="1.2"/>
  <circle cx="62.5" cy="27" r="2.8" stroke-width="1.2"/>
  <circle cx="62.5" cy="53" r="2.8" stroke-width="1.2"/>
  <circle cx="40" cy="66" r="2.8" stroke-width="1.2"/>
  <circle cx="17.5" cy="53" r="2.8" stroke-width="1.2"/>
  <circle cx="17.5" cy="27" r="2.8" stroke-width="1.2"/>
  <g stroke-width="0.7" opacity="0.7">
    <line x1="40" y1="35" x2="40" y2="17"/>
    <line x1="44.3" y1="37.5" x2="60" y2="28.5"/>
    <line x1="44.3" y1="42.5" x2="60" y2="51.5"/>
    <line x1="40" y1="45" x2="40" y2="63"/>
    <line x1="35.7" y1="42.5" x2="20" y2="51.5"/>
    <line x1="35.7" y1="37.5" x2="20" y2="28.5"/>
  </g>
  <g stroke-width="0.5" opacity="0.4" stroke-dasharray="1.5 2">
    <line x1="42.5" y1="16" x2="60" y2="27"/>
    <line x1="62.5" y1="30" x2="62.5" y2="50"/>
    <line x1="60" y1="55" x2="42.5" y2="65"/>
    <line x1="37.5" y1="65" x2="20" y2="55"/>
    <line x1="17.5" y1="50" x2="17.5" y2="30"/>
    <line x1="20" y1="27" x2="37.5" y2="16"/>
  </g>
  <g fill="#B8BDC9" stroke="none" opacity="0.7">
    <circle cx="40" cy="40" r="1.2"/>
  </g>
  <g stroke-width="0.6" opacity="0.85">
    <line x1="38" y1="40" x2="36" y2="40"/>
    <line x1="42" y1="40" x2="44" y2="40"/>
    <line x1="40" y1="38" x2="40" y2="36"/>
    <line x1="40" y1="42" x2="40" y2="44"/>
  </g>
  <g fill="#B8BDC9" stroke="none" opacity="0.5">
    <circle cx="8" cy="40" r="0.7"/>
    <circle cx="72" cy="40" r="0.7"/>
    <circle cx="40" cy="8" r="0.6"/>
    <circle cx="40" cy="72" r="0.6"/>
    <circle cx="55" cy="14" r="0.5"/>
    <circle cx="25" cy="66" r="0.5"/>
  </g>
</svg>
