<svg xmlns="http://www.w3.org/2000/svg" viewBox="0 0 80 80" fill="none" stroke="#B8BDC9" stroke-linecap="round" stroke-linejoin="round" role="img" aria-label="Azienda">
  <circle cx="20" cy="20" r="3" stroke-width="1.5"/>
  <circle cx="60" cy="20" r="3" stroke-width="1.5"/>
  <circle cx="40" cy="40" r="4" stroke-width="1.5"/>
  <circle cx="20" cy="60" r="3" stroke-width="1.5"/>
  <circle cx="60" cy="60" r="3" stroke-width="1.5"/>
  <line x1="22" y1="22" x2="38" y2="38" stroke-width="1"/>
  <line x1="58" y1="22" x2="42" y2="38" stroke-width="1"/>
  <line x1="22" y1="58" x2="38" y2="42" stroke-width="1"/>
  <line x1="58" y1="58" x2="42" y2="42" stroke-width="1"/>
  <line x1="23" y1="20" x2="57" y2="20" stroke-width="1"/>
  <line x1="23" y1="60" x2="57" y2="60" stroke-width="1"/>
  <g stroke-width="0.6" opacity="0.5" stroke-dasharray="2 2">
    <line x1="20" y1="23" x2="20" y2="57"/>
    <line x1="60" y1="23" x2="60" y2="57"/>
  </g>
  <circle cx="40" cy="40" r="6" stroke-width="0.7" opacity="0.5" stroke-dasharray="2 2"/>
  <circle cx="40" cy="40" r="1.5" fill="#B8BDC9" stroke="none"/>
  <g fill="#B8BDC9" stroke="none" opacity="0.7">
    <circle cx="20" cy="20" r="0.8"/>
    <circle cx="60" cy="20" r="0.8"/>
    <circle cx="20" cy="60" r="0.8"/>
    <circle cx="60" cy="60" r="0.8"/>
  </g>
  <g stroke-width="0.7" opacity="0.6">
    <path d="M68 40 L 68 44 M 66 42 L 70 42"/>
    <path d="M10 40 L 10 44 M 8 42 L 12 42"/>
  </g>
</svg>
