<svg xmlns="http://www.w3.org/2000/svg" viewBox="0 0 80 80" fill="none" stroke="#B8BDC9" stroke-linecap="round" stroke-linejoin="round" role="img" aria-label="Glossario SAP">
  <path d="M14 18 c 8 -2 18 -2 26 2 c 8 -4 18 -4 26 -2 v 44 c -8 -2 -18 -2 -26 2 c -8 -4 -18 -4 -26 -2 z" stroke-width="1.5"/>
  <line x1="40" y1="20" x2="40" y2="64" stroke-width="1.5"/>
  <line x1="20" y1="30" x2="34" y2="30" stroke-width="1"/>
  <line x1="20" y1="38" x2="34" y2="38" stroke-width="1"/>
  <line x1="20" y1="46" x2="34" y2="46" stroke-width="0.7" opacity="0.6"/>
  <line x1="20" y1="52" x2="32" y2="52" stroke-width="0.7" opacity="0.6"/>
  <line x1="46" y1="30" x2="60" y2="30" stroke-width="1"/>
  <line x1="46" y1="38" x2="60" y2="38" stroke-width="1"/>
  <line x1="46" y1="46" x2="58" y2="46" stroke-width="0.7" opacity="0.6"/>
  <line x1="46" y1="52" x2="60" y2="52" stroke-width="0.7" opacity="0.6"/>
  <rect x="22" y="22" width="4" height="4" stroke-width="0.7" opacity="0.65"/>
  <path d="M50 14 L 50 24 L 53 22 L 56 24 L 56 14" stroke-width="0.8" opacity="0.7"/>
  <g fill="#B8BDC9" stroke="none" opacity="0.5">
    <circle cx="26" cy="64" r="0.6"/>
    <circle cx="54" cy="64" r="0.6"/>
  </g>
  <g stroke-width="0.7" opacity="0.6">
    <path d="M70 22 L 70 26 M 68 24 L 72 24"/>
  </g>
</svg>
