<svg xmlns="http://www.w3.org/2000/svg" viewBox="0 0 80 80" fill="none" stroke="#B8BDC9" stroke-linecap="round" stroke-linejoin="round" role="img" aria-label="Glossario Progetto">
  <rect x="20" y="14" width="40" height="56" rx="3" stroke-width="1.5"/>
  <rect x="30" y="10" width="20" height="8" rx="1" stroke-width="1.5"/>
  <line x1="28" y1="30" x2="52" y2="30" stroke-width="1"/>
  <line x1="28" y1="38" x2="52" y2="38" stroke-width="1"/>
  <line x1="28" y1="46" x2="46" y2="46" stroke-width="1"/>
  <line x1="28" y1="54" x2="48" y2="54" stroke-width="1"/>
  <g stroke-width="0.5" opacity="0.5">
    <line x1="28" y1="33" x2="46" y2="33"/>
    <line x1="28" y1="41" x2="44" y2="41"/>
  </g>
  <g stroke-width="0.7" opacity="0.7">
    <path d="M22 30 L 24 31.5 L 26 28.5"/>
    <path d="M22 38 L 24 39.5 L 26 36.5"/>
  </g>
  <g stroke-width="0.6" opacity="0.55">
    <rect x="22" y="44" width="3" height="3"/>
    <rect x="22" y="52" width="3" height="3"/>
  </g>
  <path d="M36 12 Q 36 8 40 8 Q 44 8 44 12" stroke-width="0.6" opacity="0.55"/>
  <path d="M28 62 Q 32 59 36 62 Q 40 65 44 62" stroke-width="0.7" opacity="0.7"/>
  <path d="M58 14 L 60 14 L 60 16 Z" stroke-width="0.5" opacity="0.5"/>
</svg>
