<svg xmlns="http://www.w3.org/2000/svg" viewBox="0 0 80 80" fill="none" stroke="#B8BDC9" stroke-linecap="round" stroke-linejoin="round" role="img" aria-label="Inclusion and Diversity">
  <circle cx="40" cy="20" r="6" stroke-width="1.5"/>
  <path d="M28 36 c 0 -7 5 -12 12 -12 s 12 5 12 12" stroke-width="1.5"/>
  <circle cx="20" cy="46" r="6" stroke-width="1.5"/>
  <path d="M8 62 c 0 -7 5 -12 12 -12 s 12 5 12 12" stroke-width="1.5"/>
  <circle cx="60" cy="46" r="6" stroke-width="1.5"/>
  <path d="M48 62 c 0 -7 5 -12 12 -12 s 12 5 12 12" stroke-width="1.5"/>
  <path d="M34 16 Q 40 12 46 16" stroke-width="0.7" opacity="0.6"/>
  <path d="M14 42 Q 20 38 26 42" stroke-width="0.7" opacity="0.6"/>
  <circle cx="60" cy="40" r="6.5" stroke-width="0.6" opacity="0.5"/>
  <path d="M40 44 Q 38 42 38 44 Q 38 46 40 48 Q 42 46 42 44 Q 42 42 40 44 Z" stroke-width="0.8" opacity="0.7"/>
  <g stroke-width="0.6" opacity="0.5" stroke-dasharray="2 2">
    <line x1="32" y1="30" x2="22" y2="40"/>
    <line x1="48" y1="30" x2="58" y2="40"/>
    <line x1="28" y1="50" x2="52" y2="50"/>
  </g>
  <g fill="#B8BDC9" stroke="none" opacity="0.65">
    <circle cx="14" cy="20" r="0.7"/>
    <circle cx="66" cy="20" r="0.7"/>
    <circle cx="40" cy="68" r="0.6"/>
  </g>
</svg>
