<svg xmlns="http://www.w3.org/2000/svg" viewBox="0 0 80 80" fill="none" stroke="#B8BDC9" stroke-linecap="round" stroke-linejoin="round" role="img" aria-label="Lavora con noi">
  <rect x="14" y="26" width="52" height="40" rx="3" stroke-width="1.5"/>
  <path d="M28 26v-6c0-2 2-4 4-4h16c2 0 4 2 4 4v6" stroke-width="1.5"/>
  <line x1="14" y1="40" x2="66" y2="40" stroke-width="1.5"/>
  <line x1="36" y1="48" x2="44" y2="48" stroke-width="2"/>
  <line x1="40" y1="44" x2="40" y2="52" stroke-width="2"/>
  <g stroke-width="0.6" opacity="0.5">
    <line x1="18" y1="30" x2="62" y2="30"/>
    <line x1="18" y1="62" x2="62" y2="62"/>
  </g>
  <line x1="50" y1="20" x2="54" y2="22" stroke-width="0.7"/>
  <rect x="52" y="21" width="6" height="4" stroke-width="0.7"/>
  <path d="M58 32 L 64 32 L 64 38 L 58 38 L 60 36 Z" stroke-width="0.6" opacity="0.55"/>
  <g fill="#B8BDC9" stroke="none" opacity="0.6">
    <circle cx="22" cy="56" r="0.6"/>
    <circle cx="58" cy="58" r="0.5"/>
  </g>
  <g stroke-width="0.7" opacity="0.55">
    <path d="M68 28 L 68 32 M 66 30 L 70 30"/>
  </g>
</svg>
