<svg xmlns="http://www.w3.org/2000/svg" viewBox="0 0 80 80" fill="none" stroke="#B8BDC9" stroke-linecap="round" stroke-linejoin="round" role="img" aria-label="Soluzioni">
  <circle cx="40" cy="40" r="30" stroke-width="0.6" opacity="0.4" stroke-dasharray="2 2"/>
  <circle cx="40" cy="40" r="26" stroke-width="1.5"/>
  <circle cx="40" cy="40" r="22" stroke-width="0.5" opacity="0.4"/>
  <g stroke-width="0.8" opacity="0.7">
    <line x1="40" y1="14" x2="40" y2="17"/>
    <line x1="40" y1="63" x2="40" y2="66"/>
    <line x1="14" y1="40" x2="17" y2="40"/>
    <line x1="63" y1="40" x2="66" y2="40"/>
  </g>
  <g stroke-width="0.5" opacity="0.55">
    <line x1="22" y1="22" x2="24" y2="24"/>
    <line x1="56" y1="22" x2="58" y2="24"/>
    <line x1="22" y1="58" x2="24" y2="56"/>
    <line x1="56" y1="58" x2="58" y2="56"/>
  </g>
  <polygon points="40,18 44,40 36,40" fill="#B8BDC9" stroke="none"/>
  <polygon points="40,62 44,40 36,40" stroke-width="1"/>
  <circle cx="40" cy="40" r="2" fill="#B8BDC9" stroke="none"/>
  <circle cx="40" cy="40" r="3" stroke-width="0.7" opacity="0.6"/>
  <g fill="#B8BDC9" stroke="none" opacity="0.6">
    <circle cx="40" cy="9" r="0.7"/>
    <circle cx="40" cy="71" r="0.5"/>
    <circle cx="9" cy="40" r="0.5"/>
    <circle cx="71" cy="40" r="0.7"/>
  </g>
</svg>
