<svg xmlns="http://www.w3.org/2000/svg" viewBox="0 0 80 80" fill="none" stroke="#B8BDC9" stroke-linecap="round" stroke-linejoin="round" role="img" aria-label="Sostenibilità">
  <path d="M40 14 c -16 0 -24 14 -22 28 c 1 8 6 16 14 22 c 0 -18 4 -36 8 -50 z" stroke-width="1.5"/>
  <path d="M40 14 c 16 0 24 14 22 28 c -1 8 -6 16 -14 22 c 0 -18 -4 -36 -8 -50 z" stroke-width="1.5"/>
  <line x1="40" y1="64" x2="40" y2="40" stroke-width="1"/>
  <g stroke-width="0.6" opacity="0.55">
    <path d="M40 24 L 28 28"/>
    <path d="M40 24 L 52 28"/>
    <path d="M40 32 L 24 38"/>
    <path d="M40 32 L 56 38"/>
    <path d="M40 42 L 28 46"/>
    <path d="M40 42 L 52 46"/>
  </g>
  <g fill="#B8BDC9" stroke="none" opacity="0.7">
    <circle cx="32" cy="30" r="0.8"/>
    <circle cx="48" cy="34" r="0.7"/>
    <circle cx="34" cy="44" r="0.6"/>
  </g>
  <g stroke-width="0.8" opacity="0.65">
    <line x1="40" y1="68" x2="40" y2="74"/>
    <path d="M37 71 L 40 68 L 43 71"/>
  </g>
  <g stroke-width="0.7" opacity="0.6">
    <path d="M14 20 L 14 24 M 12 22 L 16 22"/>
    <path d="M66 20 L 66 24 M 64 22 L 68 22"/>
  </g>
  <g fill="#B8BDC9" stroke="none" opacity="0.55">
    <circle cx="20" cy="56" r="0.6"/>
    <circle cx="60" cy="56" r="0.6"/>
  </g>
</svg>
